# xmcd
#
# Track frame offsets:
# 150
# 11463
# 22075
# 42113
# 53200
# 64413
# 72888
# 83188
# 94375
# 105315
# 117100
# 129688
# 139800
# 150675
# 162025
# 171538
# 181113
# 189763
#
# Disc length: 2672 seconds
#
#
# Revision: 0
# Processed by: cddbd v1.5.2PL0 Copyright (c) Steve Scherf et al.
# Submitted via: FreeRIP 2.40 
#
DISCID=ee0a6e12
DTITLE=Paul Anka - Best Of
DYEAR=1900
DGENRE=Ballad
TTITLE0=You Are My Destiny
TTITLE1=Diana
TTITLE2=My Way
TTITLE3=Lonely Boy
TTITLE4=Crazy Love
TTITLE5=It Doesn't Matter Anymore
TTITLE6=Love Land
TTITLE7=Don't Gamble With Love
TTITLE8=I Love You Baby
TTITLE9=Put Your Head On My Shoulder
TTITLE10=Puppy Love
TTITLE11=Adam And Eve
TTITLE12=Crying In The Wind
TTITLE13=Time To Cry
TTITLE14=My Hometown
TTITLE15=Tonight My Love, Tonight
TTITLE16=Dance On Little Girl
TTITLE17=Don't Ever Leave Me
EXTD=
EXTT0=
EXTT1=
EXTT2=
EXTT3=
EXTT4=
EXTT5=
EXTT6=
EXTT7=
EXTT8=
EXTT9=
EXTT10=
EXTT11=
EXTT12=
EXTT13=
EXTT14=
EXTT15=
EXTT16=
EXTT17=
PLAYORDER=
